<svg width="23" height="24" viewBox="0 0 23 24" fill="none" xmlns="http://www.w3.org/2000/svg">
<path fill-rule="evenodd" clip-rule="evenodd" d="M1.1524 6C1.1524 3.92893 2.83134 2.25 4.9024 2.25H17.9263C19.9974 2.25 21.6763 3.92893 21.6763 6V14C21.6763 16.0711 19.9974 17.75 17.9263 17.75H14.4502L14.896 20.25H16.1704C16.5846 20.25 16.9204 20.5858 16.9204 21C16.9204 21.4142 16.5846 21.75 16.1704 21.75H14.2809C14.2717 21.7502 14.2625 21.7502 14.2533 21.75H8.57548C8.56629 21.7502 8.55707 21.7502 8.54782 21.75H6.65839C6.24417 21.75 5.90839 21.4142 5.90839 21C5.90839 20.5858 6.24417 20.25 6.65839 20.25H7.93271L8.37858 17.75H4.90241C2.83134 17.75 1.1524 16.0711 1.1524 14V6ZM12.9265 17.75L13.3724 20.25H9.45638L9.90225 17.75H12.9265ZM17.9263 16.25H13.5546H9.27418H4.90241C3.65976 16.25 2.6524 15.2426 2.6524 14V13.75H20.1763V14C20.1763 15.2426 19.169 16.25 17.9263 16.25ZM20.1763 12.25H2.6524V6C2.6524 4.75736 3.65976 3.75 4.9024 3.75H17.9263C19.169 3.75 20.1763 4.75736 20.1763 6V12.25ZM15.6546 10.8232C15.3592 11.0339 14.9551 11.0029 14.6954 10.7494L11.387 7.52114L9.05501 9.56413C8.75243 9.82922 8.2946 9.80838 8.01736 9.51691L5.16377 6.51691C4.87829 6.21678 4.89016 5.74206 5.19029 5.45658C5.49041 5.1711 5.96514 5.18297 6.25062 5.4831L8.60804 7.96148L10.9201 5.93588C11.2146 5.6779 11.658 5.6898 11.9382 5.96321L15.2942 9.23788L16.4839 8.38939C16.8211 8.14888 17.2894 8.22728 17.53 8.56451C17.7705 8.90174 17.6921 9.3701 17.3548 9.61062L15.6546 10.8232Z" fill="#FD812D"/>
</svg>
