<svg width="24" height="24" viewBox="0 0 24 24" fill="none" xmlns="http://www.w3.org/2000/svg">
<path fill-rule="evenodd" clip-rule="evenodd" d="M12.7031 3.23744C12.8007 3.13981 12.959 3.13981 13.0567 3.23744L13.8833 4.06407C14.3783 4.55908 15.1207 4.71146 15.7707 4.45147L17.6004 3.71958C17.8173 3.63282 18.0241 3.86453 17.9133 4.07023L15.9319 7.75H13.6299H11.8799H9.82785L7.84644 4.07023C7.73568 3.86453 7.94248 3.63282 8.1594 3.71958L9.9891 4.45147C10.6391 4.71146 11.3815 4.55908 11.8765 4.06407L12.7031 3.23744ZM13.6299 9.25H16.0106L19.7022 14.0491C20.3037 14.8311 20.6299 15.79 20.6299 16.7766C20.6299 19.2472 18.6271 21.25 16.1565 21.25H9.60329C7.13269 21.25 5.12988 19.2472 5.12988 16.7766C5.12988 15.79 5.45603 14.8311 6.05756 14.0491L9.74918 9.25H11.8799H13.6299ZM6.52573 4.78138L8.48919 8.42781L4.86862 13.1345C4.06539 14.1787 3.62988 15.4592 3.62988 16.7766C3.62988 20.0756 6.30427 22.75 9.60329 22.75H16.1565C19.4555 22.75 22.1299 20.0756 22.1299 16.7766C22.1299 15.4592 21.6944 14.1787 20.8911 13.1345L17.2706 8.42781L19.234 4.78138C20.0094 3.34148 18.5617 1.71951 17.0433 2.32687L15.2136 3.05875C15.1207 3.09589 15.0147 3.07412 14.9439 3.00341L14.1173 2.17678C13.4339 1.49336 12.3259 1.49336 11.6424 2.17678L10.8158 3.00341C10.7451 3.07412 10.639 3.09589 10.5462 3.05875L8.71649 2.32687C7.19809 1.71951 5.7504 3.34148 6.52573 4.78138ZM11.1418 19.1444C11.6016 19.3815 12.1561 19.5 12.8053 19.5C13.2718 19.5 13.6911 19.437 14.063 19.3111C14.4417 19.1852 14.7663 19.0111 15.0367 18.7889C15.3072 18.5667 15.5135 18.3074 15.6555 18.0111C15.8042 17.7074 15.8786 17.3815 15.8786 17.0333C15.8854 16.9667 15.8651 16.9111 15.8178 16.8667C15.7772 16.8222 15.7265 16.8 15.6656 16.8H14.5093C14.4282 16.8 14.3605 16.8222 14.3064 16.8667C14.2591 16.9037 14.2185 16.9741 14.1847 17.0778C14.0901 17.4407 13.9244 17.6963 13.6877 17.8444C13.451 17.9926 13.1569 18.0667 12.8053 18.0667C12.3657 18.0667 12.0242 17.9296 11.7808 17.6556C11.5374 17.3815 11.419 16.9185 11.4258 16.2667V16.1444H13.0081C13.0825 16.1444 13.1434 16.1185 13.1907 16.0667C13.238 16.0148 13.2617 15.9482 13.2617 15.8667V15.1222C13.2617 15.0407 13.238 14.9741 13.1907 14.9222C13.1434 14.8704 13.0825 14.8444 13.0081 14.8444H11.4258V14.7222C11.419 14.0778 11.5374 13.6185 11.7808 13.3444C12.0242 13.0704 12.3657 12.9333 12.8053 12.9333C13.1569 12.9333 13.451 13.0074 13.6877 13.1556C13.9244 13.3037 14.0901 13.5593 14.1847 13.9222C14.2185 14.0259 14.2591 14.1 14.3064 14.1444C14.3605 14.1815 14.4282 14.2 14.5093 14.2H15.6656C15.7265 14.2 15.7772 14.1778 15.8178 14.1333C15.8651 14.0889 15.8854 14.0333 15.8786 13.9667C15.8786 13.6185 15.8042 13.2963 15.6555 13C15.5135 12.6963 15.3072 12.4333 15.0367 12.2111C14.7663 11.9889 14.4417 11.8148 14.063 11.6889C13.6911 11.563 13.2718 11.5 12.8053 11.5C12.1561 11.5 11.605 11.6222 11.1519 11.8667C10.6989 12.1037 10.354 12.4593 10.1173 12.9333C9.88067 13.4 9.75895 13.9778 9.75219 14.6667V14.8444H9.12332C9.0557 14.8444 8.99822 14.8704 8.95088 14.9222C8.90355 14.9741 8.87988 15.0407 8.87988 15.1222V15.8667C8.87988 15.9482 8.90355 16.0148 8.95088 16.0667C8.99822 16.1185 9.0557 16.1444 9.12332 16.1444H9.75219V16.3333C9.75219 17.0148 9.87052 17.5926 10.1072 18.0667C10.3439 18.5407 10.6887 18.9 11.1418 19.1444Z" fill="#7A0916"/>
</svg>
